0
SECTION
2
HEADER
9
$ACADVER
1
AC1015
9
$INSUNITS
70
4
9
$EXTMIN
10
0
20
0
30
0
9
$EXTMAX
10
46.99
20
30.479996
30
0
0
ENDSEC
0
SECTION
2
ENTITIES
0
LINE
8
BTX_SYMBOL
10
39.115965
20
24.849667
30
0
11
37.464965
21
24.680333
31
0
0
LINE
8
BTX_SYMBOL
10
37.464965
20
24.680333
30
0
11
35.856298
21
24.384
31
0
0
LINE
8
BTX_SYMBOL
10
35.856298
20
24.384
30
0
11
34.247631
21
23.960667
31
0
0
LINE
8
BTX_SYMBOL
10
34.247631
20
23.960667
30
0
11
32.723631
21
23.368
31
0
0
LINE
8
BTX_SYMBOL
10
32.723631
20
23.368
30
0
11
31.199631
21
22.648333
31
0
0
LINE
8
BTX_SYMBOL
10
31.199631
20
22.648333
30
0
11
29.802631
21
21.844
31
0
0
LINE
8
BTX_SYMBOL
10
29.802631
20
21.844
30
0
11
28.447965
21
20.870333
31
0
0
LINE
8
BTX_SYMBOL
10
28.447965
20
20.870333
30
0
11
27.220298
21
19.769667
31
0
0
LINE
8
BTX_SYMBOL
10
27.220298
20
19.769667
30
0
11
26.077298
21
18.584333
31
0
0
LINE
8
BTX_SYMBOL
10
26.077298
20
18.584333
30
0
11
25.061298
21
17.272
31
0
0
LINE
8
BTX_SYMBOL
10
25.061298
20
17.272
30
0
11
24.129965
21
15.917333
31
0
0
LINE
8
BTX_SYMBOL
10
24.129965
20
15.917333
30
0
11
23.367965
21
14.478
31
0
0
LINE
8
BTX_SYMBOL
10
23.367965
20
14.478
30
0
11
22.690631
21
12.954
31
0
0
LINE
8
BTX_SYMBOL
10
22.690631
20
12.954
30
0
11
22.182631
21
11.387667
31
0
0
LINE
8
BTX_SYMBOL
10
22.182631
20
11.387667
30
0
11
21.843965
21
9.779
31
0
0
LINE
8
BTX_SYMBOL
10
21.843965
20
9.779
30
0
11
21.589965
21
8.128
31
0
0
LINE
8
BTX_SYMBOL
10
21.589965
20
8.128
30
0
11
21.547631
21
6.477
31
0
0
LINE
8
BTX_SYMBOL
10
21.547631
20
6.477
30
0
11
21.462965
21
8.128
31
0
0
LINE
8
BTX_SYMBOL
10
21.462965
20
8.128
30
0
11
21.251298
21
9.779
31
0
0
LINE
8
BTX_SYMBOL
10
21.251298
20
9.779
30
0
11
20.870298
21
11.387667
31
0
0
LINE
8
BTX_SYMBOL
10
20.870298
20
11.387667
30
0
11
20.362298
21
12.954
31
0
0
LINE
8
BTX_SYMBOL
10
20.362298
20
12.954
30
0
11
19.727298
21
14.478
31
0
0
LINE
8
BTX_SYMBOL
10
19.727298
20
14.478
30
0
11
18.922965
21
15.917333
31
0
0
LINE
8
BTX_SYMBOL
10
18.922965
20
15.917333
30
0
11
18.033965
21
17.272
31
0
0
LINE
8
BTX_SYMBOL
10
18.033965
20
17.272
30
0
11
16.975631
21
18.584333
31
0
0
LINE
8
BTX_SYMBOL
10
16.975631
20
18.584333
30
0
11
15.832631
21
19.769667
31
0
0
LINE
8
BTX_SYMBOL
10
15.832631
20
19.769667
30
0
11
14.604965
21
20.870333
31
0
0
LINE
8
BTX_SYMBOL
10
14.604965
20
20.870333
30
0
11
13.250298
21
21.844
31
0
0
LINE
8
BTX_SYMBOL
10
13.250298
20
21.844
30
0
11
11.853298
21
22.648333
31
0
0
LINE
8
BTX_SYMBOL
10
11.853298
20
22.648333
30
0
11
10.371631
21
23.368
31
0
0
LINE
8
BTX_SYMBOL
10
10.371631
20
23.368
30
0
11
8.805298
21
23.960667
31
0
0
LINE
8
BTX_SYMBOL
10
8.805298
20
23.960667
30
0
11
7.238965
21
24.384
31
0
0
LINE
8
BTX_SYMBOL
10
7.238965
20
24.384
30
0
11
5.587965
21
24.680333
31
0
0
LINE
8
BTX_SYMBOL
10
5.587965
20
24.680333
30
0
11
3.979298
21
24.849667
31
0
0
LINE
8
BTX_SYMBOL
10
3.174965
20
6.477
30
0
11
3.979298
21
6.477
31
0
0
LINE
8
BTX_SYMBOL
10
3.979298
20
6.477
30
0
11
3.979298
21
24.849667
31
0
0
LINE
8
BTX_SYMBOL
10
3.979298
20
24.849667
30
0
11
3.174965
21
24.849667
31
0
0
LINE
8
BTX_SYMBOL
10
3.174965
20
24.849667
30
0
11
3.174965
21
6.477
31
0
0
LINE
8
BTX_SYMBOL
10
39.115965
20
6.477
30
0
11
39.920298
21
6.477
31
0
0
LINE
8
BTX_SYMBOL
10
39.920298
20
6.477
30
0
11
39.920298
21
24.849667
31
0
0
LINE
8
BTX_SYMBOL
10
39.920298
20
24.849667
30
0
11
39.115965
21
24.849667
31
0
0
LINE
8
BTX_SYMBOL
10
39.115965
20
24.849667
30
0
11
39.115965
21
6.477
31
0
0
ENDSEC
0
EOF
